Exact Audio Copy V0.99 prebeta 1 from 25. May 2007

EAC 抓取日志文件从28. 十一月 2010, 10:23

马玉涛 / 20世纪中华歌坛名人百集珍藏版

使用驱动器  ：BENQ    DVD-ROM 16X   Adapter: 0  ID: 1

读取模式     : 保护
使用精确流   : 是
废除音频缓冲 : 是
使用 C2 指针 : 否

读取偏移校正                   : 738
读取 Lead-In 和 Lead-Out       : 否
用静音填充抓取中丢失偏移的采样 : 是
去除首尾静音块                 : 否
已用接口                       : Win NT 及 2000 本地 Win32 接口

所用输出格式 : 内部 WAV 函数
样本格式     : 44.100 Hz;16 Bit;立体声


被抓轨 CD 的 TOC

     音轨 |   开始   |   长度   | 起始扇区 | 结尾扇区 
    --------------------------------------------------
       1  |  0:00.00 |  5:39.69 |       0  |   25493  
       2  |  5:39.69 |  4:27.36 |   25494  |   45554  
       3  | 10:07.30 |  2:32.67 |   45555  |   57021  
       4  | 12:40.22 |  5:03.73 |   57022  |   79819  
       5  | 17:44.20 |  4:26.52 |   79820  |   99821  
       6  | 22:10.72 |  4:18.20 |   99822  |  119191  
       7  | 26:29.17 |  3:09.45 |  119192  |  133411  
       8  | 29:38.62 |  1:43.10 |  133412  |  141146  
       9  | 31:21.72 |  3:50.45 |  141147  |  158441  
      10  | 35:12.42 |  3:44.67 |  158442  |  175308  
      11  | 38:57.34 |  3:13.00 |  175309  |  189783  
      12  | 42:10.34 |  5:07.33 |  189784  |  212841  
      13  | 47:17.67 |  2:02.03 |  212842  |  221994  
      14  | 49:19.70 |  1:43.37 |  221995  |  229756  


范围状态及错误

已选择范围

     文件名 E:\文件夹\20世纪中华歌坛名人百集珍藏版-马玉涛[lwg188原创]\马玉涛 - 20世纪中华歌坛名人百集珍藏版.wav

     峰值电平 100.0 %
     范围质量 100.0 %
     复制 CRC 2B455CB9
     复制成功

没有错误发生

状态报告结尾
